<svg xmlns="http://www.w3.org/2000/svg" xmlns:xlink="http://www.w3.org/1999/xlink" width="800" zoomAndPan="magnify" viewBox="0 0 600 299.999988" height="400" preserveAspectRatio="xMidYMid meet" version="1.2"><defs/><g id="56c44c45c3"><rect x="0" width="600" y="0" height="299.999988" style="fill:#ffffff;fill-opacity:1;stroke:none;"/><rect x="0" width="600" y="0" height="299.999988" style="fill:#0f1728;fill-opacity:1;stroke:none;"/><path style=" stroke:none;fill-rule:nonzero;fill:#ffffff;fill-opacity:1;" d="M 391.574219 256.082031 C 385.027344 251.660156 381.589844 244.511719 380.949219 234.003906 C 380.472656 226.171875 381.253906 220.269531 384.617188 206.304688 C 387.621094 193.832031 388.023438 191.335938 388.214844 183.949219 L 388.378906 177.523438 L 387.449219 175.8125 C 386.9375 174.871094 386.433594 174.113281 386.324219 174.125 C 385.984375 174.160156 381.890625 179.027344 379.402344 182.347656 C 373.980469 189.585938 370.902344 196.726562 370.339844 203.371094 L 370.125 205.941406 L 368.375 206.304688 C 364.847656 207.039062 364.761719 207.015625 364.265625 205.128906 C 363.601562 202.613281 363.914062 196.324219 364.84375 193.558594 C 366.101562 189.808594 368.925781 184.554688 372.964844 178.457031 C 377.445312 171.683594 380.371094 166.339844 381.445312 162.9375 C 382.324219 160.15625 382.433594 160.089844 386.609375 159.792969 L 389.511719 159.585938 L 390.546875 162.234375 C 393.015625 168.53125 393.925781 172.964844 394.222656 180.140625 C 394.558594 188.339844 393.695312 195.660156 390.285156 213.515625 C 387.328125 228.992188 387.363281 228.640625 388.242188 233.453125 C 389.761719 241.765625 391.847656 246.578125 395.761719 250.804688 C 396.707031 251.820312 396.734375 251.949219 396.5 253.988281 C 396.367188 255.160156 396.125 256.457031 395.96875 256.871094 C 395.519531 258.058594 394.128906 257.808594 391.574219 256.082031 Z M 361.554688 222.828125 L 360.09375 222.699219 L 360.273438 221.355469 C 360.546875 219.292969 361.871094 217.578125 363.988281 216.539062 C 365.628906 215.734375 366.390625 215.609375 371.121094 215.34375 C 374.03125 215.183594 376.980469 215.046875 377.671875 215.039062 L 378.925781 215.027344 L 378.925781 218.207031 C 378.925781 221.964844 379.886719 221.445312 371.203125 222.394531 C 365.097656 223.0625 364.5 223.089844 361.554688 222.828125 Z M 391.785156 218.535156 C 391.507812 217.429688 391.863281 215.230469 392.523438 213.945312 C 393.320312 212.410156 395.5625 210.109375 398.347656 207.980469 C 401.214844 205.785156 403.707031 203.226562 404.539062 201.617188 C 406.328125 198.148438 407.539062 186.679688 406.746094 180.71875 C 405.667969 172.597656 401.472656 163.558594 396.003906 157.5625 C 395.082031 156.554688 394.328125 155.578125 394.328125 155.394531 C 394.328125 155.214844 395.9375 153.574219 397.898438 151.753906 C 400.417969 149.417969 401.519531 148.589844 401.632812 148.945312 C 402.074219 150.339844 407.664062 160.785156 408.917969 162.5625 C 411.632812 166.40625 415.238281 169.148438 418.777344 170.058594 C 419.605469 170.273438 420.847656 170.664062 421.542969 170.933594 C 423.371094 171.636719 425.878906 171.535156 430.09375 170.582031 C 436.394531 169.15625 438.402344 169.558594 439.847656 172.550781 C 441.046875 175.027344 440.804688 175.464844 437.667969 176.519531 C 432.167969 178.371094 424.917969 178.449219 417.652344 176.742188 C 415.414062 176.214844 414.597656 176.140625 414.304688 176.429688 C 413.863281 176.871094 413.839844 179.761719 414.238281 184.5 C 414.460938 187.160156 414.382812 188.316406 413.777344 191.488281 C 411.933594 201.125 408.328125 208.175781 402.417969 213.714844 C 400.085938 215.902344 399.238281 216.480469 397.703125 216.921875 C 396.675781 217.21875 394.972656 217.894531 393.917969 218.425781 L 392 219.390625 Z M 372.820312 159.34375 C 372.316406 159.191406 371.375 158.742188 370.726562 158.339844 C 369.761719 157.742188 369.550781 157.410156 369.550781 156.492188 L 369.550781 155.371094 L 371.808594 155.148438 C 377.457031 154.597656 382.015625 152.726562 386.507812 149.128906 C 391.296875 145.289062 395.445312 139.753906 402.199219 128.199219 C 404.371094 124.480469 405.742188 122.464844 406.101562 122.457031 C 406.78125 122.441406 408.316406 124.207031 408.59375 125.316406 C 409.042969 127.105469 406.46875 135.71875 404.015625 140.648438 C 399.269531 150.175781 391.308594 156.65625 381.4375 159.03125 C 378.691406 159.691406 374.476562 159.84375 372.820312 159.34375 Z M 205.976562 154.648438 L 151.730469 154.480469 L 150.640625 153.699219 C 149.269531 152.71875 147.175781 148.457031 146.242188 144.753906 C 144.636719 138.355469 143.703125 131.351562 143.1875 121.773438 C 142.992188 118.175781 142.519531 110.402344 142.136719 104.5 C 141.378906 92.78125 141.433594 85.445312 142.363281 74.476562 C 143.765625 57.929688 146.316406 48.003906 149.742188 45.753906 C 150.6875 45.136719 160.570312 44.53125 192.652344 43.136719 C 222.832031 41.828125 255.4375 42.90625 273.765625 45.820312 C 277.902344 46.476562 278.660156 47.058594 280.644531 51.089844 C 282.652344 55.164062 283.800781 59.796875 284.097656 65.007812 C 284.425781 70.675781 284.292969 72.015625 283.378906 72.261719 C 282.210938 72.574219 278.480469 72.492188 277.820312 72.140625 C 276.867188 71.628906 276.183594 69.457031 275.625 65.175781 C 274.449219 56.097656 272.847656 53.964844 265.996094 52.34375 C 258.34375 50.53125 246.710938 49.855469 223.558594 49.875 C 201.054688 49.898438 183.675781 50.589844 166.238281 52.164062 C 161.929688 52.554688 160.699219 52.785156 159.359375 53.464844 C 155.894531 55.222656 153.308594 59.332031 151.722656 65.59375 C 150.507812 70.386719 150.261719 73.535156 149.902344 88.933594 C 149.382812 111.066406 150.226562 121.785156 153.378906 133.25 C 155.285156 140.175781 156.867188 142.527344 160.984375 144.539062 C 165.558594 146.773438 163.765625 146.695312 209.160156 146.679688 C 248.5 146.667969 261.492188 146.421875 266.597656 145.589844 C 271.351562 144.8125 274.074219 139.878906 275.636719 129.203125 C 276.367188 124.226562 276.453125 123.925781 277.421875 123.058594 C 279.386719 121.300781 281.964844 121.511719 283.058594 123.519531 C 284.042969 125.328125 283.839844 131.167969 282.578125 137.203125 C 280.953125 144.984375 279.460938 150.253906 278.59375 151.285156 C 276.902344 153.300781 271.910156 154.503906 264.40625 154.707031 C 262.105469 154.769531 235.8125 154.742188 205.976562 154.648438 Z M 358.667969 149.144531 C 356.484375 148.605469 355.175781 147.894531 353.597656 146.40625 L 352.3125 145.191406 L 353.09375 144.554688 C 354.308594 143.570312 356.929688 142.910156 361.679688 142.394531 C 364.074219 142.136719 366.710938 141.703125 367.542969 141.433594 C 376.648438 138.46875 382.328125 134.824219 389.691406 127.210938 C 393.292969 123.488281 400.707031 114.273438 401.257812 112.839844 C 401.367188 112.550781 401.972656 112.382812 402.910156 112.382812 C 404.636719 112.382812 404.632812 112.183594 402.980469 117.234375 C 399.242188 128.644531 391.535156 138.085938 380.519531 144.742188 C 378.042969 146.238281 377.574219 146.382812 370.007812 147.960938 C 361.492188 149.738281 361.199219 149.769531 358.667969 149.144531 Z M 196.886719 142.074219 C 197.210938 141.230469 209.496094 124.148438 212.230469 120.738281 C 217.855469 113.726562 226.078125 105.089844 229.1875 102.925781 C 231.503906 101.316406 235.59375 99.992188 239.589844 99.5625 C 244.351562 99.046875 283.488281 99.066406 313.796875 99.597656 C 339.511719 100.046875 338.808594 99.988281 346.144531 102.316406 C 348.414062 103.039062 350.339844 103.5625 350.414062 103.484375 C 350.492188 103.40625 350.144531 102.804688 349.644531 102.144531 C 348.460938 100.59375 345.839844 98.867188 343.09375 97.835938 C 338.511719 96.117188 336.957031 96.007812 310.785156 95.621094 C 287.183594 95.273438 276.570312 95.023438 248.335938 94.148438 L 235.109375 93.738281 L 233.144531 92.753906 C 229.6875 91.027344 226.921875 87.980469 213.285156 70.867188 C 206.042969 61.777344 200.117188 54.257812 200.117188 54.160156 C 200.117188 53.824219 207.648438 54.4375 208.128906 54.816406 C 208.390625 55.023438 211.90625 59.617188 215.945312 65.03125 C 224.644531 76.6875 227.238281 79.839844 231.242188 83.613281 C 235.203125 87.347656 236.59375 88.269531 239.066406 88.789062 C 243.835938 89.796875 256.796875 90.03125 285.78125 89.636719 C 319.386719 89.179688 330.648438 89.421875 335.898438 90.714844 C 340.089844 91.75 345.238281 93.539062 348.453125 95.085938 C 349.8125 95.734375 350.980469 96.210938 351.050781 96.140625 C 351.363281 95.824219 350.054688 93.953125 348.503906 92.503906 C 343.648438 87.953125 336.414062 85.117188 327.359375 84.214844 C 323.730469 83.855469 302.921875 83.6875 289.355469 83.910156 C 285.117188 83.980469 276.679688 84.035156 270.601562 84.03125 C 260.675781 84.023438 259.132812 83.945312 255.425781 83.277344 C 250.519531 82.394531 245.03125 80.628906 241.800781 78.898438 C 239.863281 77.859375 239.335938 77.382812 238.722656 76.144531 C 236.960938 72.574219 236.773438 62.859375 238.320312 55.105469 L 238.671875 53.34375 L 241.328125 53.34375 C 242.789062 53.34375 244.007812 53.382812 244.035156 53.429688 C 244.066406 53.476562 244.183594 57.210938 244.300781 61.730469 C 244.53125 70.726562 244.644531 71.285156 246.667969 73.597656 C 248.144531 75.28125 249.074219 75.707031 252.207031 76.128906 C 258.835938 77.019531 263.914062 77.167969 288.066406 77.160156 C 302.972656 77.15625 315.28125 77.300781 317.699219 77.503906 C 329.035156 78.464844 338.105469 80.734375 346.003906 84.582031 C 349.832031 86.449219 350.257812 86.757812 352.992188 89.664062 C 358.128906 95.132812 363.105469 102.4375 365.949219 108.691406 L 367.246094 111.542969 L 367.125 109.5 C 366.855469 104.941406 360.152344 93.828125 349.664062 80.542969 C 347.710938 78.070312 346.109375 75.925781 346.109375 75.78125 C 346.109375 75.300781 347.59375 74.476562 348.460938 74.476562 C 349.992188 74.476562 353.933594 77.144531 355.726562 79.390625 C 364.875 90.855469 370.585938 100.1875 373.25 108.023438 C 373.847656 109.773438 374.691406 111.582031 375.125 112.039062 L 375.914062 112.871094 L 376.925781 111.855469 L 377.9375 110.84375 L 377.074219 107.839844 C 375.136719 101.132812 373.027344 96.984375 364.894531 83.902344 C 358.6875 73.917969 358.648438 73.808594 361.359375 73.808594 C 362.53125 73.808594 363.25 74.113281 365.253906 75.480469 C 366.601562 76.402344 367.949219 77.34375 368.238281 77.578125 C 369.097656 78.257812 375.800781 89.652344 378.128906 94.375 C 379.304688 96.765625 380.808594 100.472656 381.46875 102.613281 C 383.21875 108.296875 383.222656 108.304688 385.128906 106.628906 C 386.347656 105.554688 386.371094 105.496094 386.175781 103.675781 C 385.71875 99.425781 383.28125 91.796875 380.390625 85.582031 C 379.585938 83.847656 378.925781 82.230469 378.925781 81.980469 C 378.925781 81.734375 379.363281 81.042969 379.894531 80.445312 C 380.828125 79.398438 380.902344 79.378906 381.820312 79.851562 C 383.378906 80.660156 386.046875 83.582031 387.1875 85.730469 C 387.769531 86.828125 389.109375 90.632812 390.164062 94.183594 C 391.21875 97.738281 392.203125 100.640625 392.347656 100.640625 C 392.496094 100.640625 393.113281 100.015625 393.722656 99.25 C 396.535156 95.714844 397.554688 95.222656 398.957031 96.722656 C 399.867188 97.691406 399.882812 98.960938 399.015625 101.480469 C 398.121094 104.085938 398.15625 104.808594 399.199219 105.285156 C 399.667969 105.5 400.273438 105.671875 400.539062 105.671875 C 401.195312 105.671875 401.152344 106.546875 400.375 108.808594 C 398.074219 115.503906 393.113281 121.414062 385.289062 126.78125 C 377.851562 131.878906 368.207031 135.066406 359.058594 135.449219 C 354.519531 135.636719 351.878906 135.109375 349.625 133.5625 C 347.894531 132.375 347.832031 131.332031 349.429688 130.253906 C 351.175781 129.078125 353.480469 128.527344 358.292969 128.140625 C 373.242188 126.9375 384.554688 121.496094 392.769531 111.554688 C 394.058594 109.996094 394.085938 109.917969 393.15625 110.53125 C 382.960938 117.234375 371.847656 122.128906 363.429688 123.625 C 360.90625 124.070312 359.03125 124.167969 355.226562 124.035156 C 350.003906 123.851562 346.882812 123.226562 343.273438 121.625 C 341.277344 120.742188 341.023438 120.28125 341.171875 117.839844 L 341.253906 116.417969 L 313.796875 116.25 C 298.695312 116.15625 282.804688 116.082031 278.484375 116.082031 C 268.496094 116.082031 258.777344 116.726562 250.511719 117.9375 C 246.609375 118.507812 245.925781 119.015625 244.621094 122.324219 C 243.742188 124.554688 243.570312 128.871094 244.113281 135.097656 C 244.449219 138.96875 244.039062 141.253906 242.855469 142.082031 C 242.425781 142.386719 241.355469 142.570312 240.050781 142.570312 C 237.539062 142.570312 237.542969 142.574219 236.984375 138.027344 C 236.167969 131.367188 236.671875 124.125 238.289062 119.261719 C 238.9375 117.308594 239.214844 116.933594 240.875 115.742188 C 244.371094 113.234375 250.210938 111.558594 258.378906 110.722656 C 260.378906 110.515625 268.734375 110.367188 277.796875 110.375 C 286.546875 110.386719 302.222656 110.292969 312.625 110.175781 C 324.738281 110.035156 334.90625 110.089844 340.890625 110.332031 C 346.03125 110.539062 350.304688 110.644531 350.382812 110.5625 C 350.714844 110.230469 346.800781 108.34375 344.460938 107.714844 C 339.847656 106.46875 337.734375 106.335938 317.480469 106.023438 C 306.429688 105.855469 288.5 105.539062 277.632812 105.320312 C 247.617188 104.722656 244.878906 104.734375 242.308594 105.441406 C 237.761719 106.691406 233.789062 108.605469 230.421875 111.171875 C 227.019531 113.761719 223.097656 118.171875 213.765625 129.910156 L 203.695312 142.570312 L 200.195312 142.570312 C 197.242188 142.570312 196.726562 142.496094 196.886719 142.074219 Z M 196.886719 142.074219 "/><g style="fill:#ffffff;fill-opacity:1;"><g transform="translate(155.342666, 187.810062)"><path style="stroke:none" d="M 13.28125 -23.125 C 16.644531 -23.125 19.304688 -22.28125 21.265625 -20.59375 C 23.234375 -18.90625 24.21875 -16.5 24.21875 -13.375 L 17.25 -13.375 C 17.25 -14.695312 16.898438 -15.742188 16.203125 -16.515625 C 15.503906 -17.285156 14.519531 -17.671875 13.25 -17.671875 C 11.769531 -17.671875 10.679688 -17.207031 9.984375 -16.28125 C 9.296875 -15.351562 8.953125 -14.066406 8.953125 -12.421875 L 8.953125 -10.3125 C 8.953125 -8.675781 9.296875 -7.390625 9.984375 -6.453125 C 10.679688 -5.515625 11.742188 -5.046875 13.171875 -5.046875 C 14.585938 -5.046875 15.65625 -5.410156 16.375 -6.140625 C 17.101562 -6.867188 17.46875 -7.894531 17.46875 -9.21875 L 24.21875 -9.21875 C 24.21875 -6.113281 23.265625 -3.734375 21.359375 -2.078125 C 19.453125 -0.429688 16.757812 0.390625 13.28125 0.390625 C 9.40625 0.390625 6.46875 -0.597656 4.46875 -2.578125 C 2.476562 -4.554688 1.484375 -7.484375 1.484375 -11.359375 C 1.484375 -15.234375 2.476562 -18.160156 4.46875 -20.140625 C 6.46875 -22.128906 9.40625 -23.125 13.28125 -23.125 Z M 13.28125 -23.125 "/></g></g><g style="fill:#ffffff;fill-opacity:1;"><g transform="translate(181.034833, 187.810062)"><path style="stroke:none" d="M 8.5625 -15.625 C 9.257812 -16.332031 10.082031 -16.878906 11.03125 -17.265625 C 11.976562 -17.648438 12.96875 -17.84375 14 -17.84375 C 16.03125 -17.84375 17.550781 -17.28125 18.5625 -16.15625 C 19.570312 -15.03125 20.078125 -13.410156 20.078125 -11.296875 L 20.078125 0 L 13.515625 0 L 13.515625 -10.5 C 13.515625 -11.25 13.320312 -11.847656 12.9375 -12.296875 C 12.550781 -12.753906 12.003906 -12.984375 11.296875 -12.984375 C 10.484375 -12.984375 9.820312 -12.71875 9.3125 -12.1875 C 8.8125 -11.65625 8.5625 -11.003906 8.5625 -10.234375 L 8.5625 0 L 1.984375 0 L 1.984375 -23.953125 L 8.5625 -23.953125 Z M 8.5625 -15.625 "/></g></g><g style="fill:#ffffff;fill-opacity:1;"><g transform="translate(203.061412, 187.810062)"><path style="stroke:none" d="M 10.609375 -17.84375 C 13.265625 -17.84375 15.429688 -17.394531 17.109375 -16.5 C 18.785156 -15.601562 19.625 -14.15625 19.625 -12.15625 L 19.625 -5.34375 C 19.625 -4.976562 19.710938 -4.671875 19.890625 -4.421875 C 20.066406 -4.179688 20.328125 -4.0625 20.671875 -4.0625 L 21.859375 -4.0625 L 21.859375 -0.265625 C 21.796875 -0.222656 21.625 -0.148438 21.34375 -0.046875 C 21.070312 0.046875 20.679688 0.140625 20.171875 0.234375 C 19.671875 0.335938 19.09375 0.390625 18.4375 0.390625 C 17.15625 0.390625 16.097656 0.195312 15.265625 -0.1875 C 14.441406 -0.570312 13.878906 -1.101562 13.578125 -1.78125 C 12.742188 -1.125 11.804688 -0.597656 10.765625 -0.203125 C 9.734375 0.191406 8.523438 0.390625 7.140625 0.390625 C 3.035156 0.390625 0.984375 -1.238281 0.984375 -4.5 C 0.984375 -6.1875 1.441406 -7.476562 2.359375 -8.375 C 3.273438 -9.269531 4.59375 -9.878906 6.3125 -10.203125 C 8.03125 -10.535156 10.273438 -10.703125 13.046875 -10.703125 L 13.046875 -11.5625 C 13.046875 -12.238281 12.804688 -12.753906 12.328125 -13.109375 C 11.859375 -13.460938 11.25 -13.640625 10.5 -13.640625 C 9.820312 -13.640625 9.234375 -13.519531 8.734375 -13.28125 C 8.242188 -13.039062 8 -12.65625 8 -12.125 L 8 -11.984375 L 1.515625 -11.984375 C 1.492188 -12.097656 1.484375 -12.253906 1.484375 -12.453125 C 1.484375 -14.109375 2.269531 -15.421875 3.84375 -16.390625 C 5.414062 -17.359375 7.671875 -17.84375 10.609375 -17.84375 Z M 13.046875 -7.59375 C 11.171875 -7.59375 9.785156 -7.390625 8.890625 -6.984375 C 8.003906 -6.578125 7.5625 -6.03125 7.5625 -5.34375 C 7.5625 -4.25 8.3125 -3.703125 9.8125 -3.703125 C 10.664062 -3.703125 11.414062 -3.929688 12.0625 -4.390625 C 12.71875 -4.859375 13.046875 -5.429688 13.046875 -6.109375 Z M 13.046875 -7.59375 "/></g></g><g style="fill:#ffffff;fill-opacity:1;"><g transform="translate(225.087991, 187.810062)"><path style="stroke:none" d="M 11 -17.84375 C 14.0625 -17.84375 16.46875 -17.0625 18.21875 -15.5 C 19.96875 -13.945312 20.84375 -11.6875 20.84375 -8.71875 C 20.84375 -5.75 19.96875 -3.488281 18.21875 -1.9375 C 16.46875 -0.382812 14.0625 0.390625 11 0.390625 C 7.9375 0.390625 5.535156 -0.378906 3.796875 -1.921875 C 2.054688 -3.460938 1.1875 -5.726562 1.1875 -8.71875 C 1.1875 -11.71875 2.054688 -13.988281 3.796875 -15.53125 C 5.535156 -17.070312 7.9375 -17.84375 11 -17.84375 Z M 11 -13.375 C 8.84375 -13.375 7.765625 -12.128906 7.765625 -9.640625 L 7.765625 -7.765625 C 7.765625 -5.296875 8.84375 -4.0625 11 -4.0625 C 13.175781 -4.0625 14.265625 -5.296875 14.265625 -7.765625 L 14.265625 -9.640625 C 14.265625 -12.128906 13.175781 -13.375 11 -13.375 Z M 11 -13.375 "/></g></g><g style="fill:#ffffff;fill-opacity:1;"><g transform="translate(247.114569, 187.810062)"><path style="stroke:none" d="M 10.265625 -17.84375 C 12.609375 -17.84375 14.585938 -17.382812 16.203125 -16.46875 C 17.816406 -15.550781 18.625 -14.132812 18.625 -12.21875 L 12.515625 -12.21875 C 12.515625 -12.851562 12.226562 -13.304688 11.65625 -13.578125 C 11.257812 -13.796875 10.765625 -13.90625 10.171875 -13.90625 C 8.585938 -13.90625 7.796875 -13.53125 7.796875 -12.78125 C 7.796875 -12.363281 8.070312 -12.066406 8.625 -11.890625 C 9.175781 -11.710938 10.078125 -11.523438 11.328125 -11.328125 C 12.867188 -11.109375 14.15625 -10.847656 15.1875 -10.546875 C 16.226562 -10.253906 17.132812 -9.726562 17.90625 -8.96875 C 18.675781 -8.207031 19.0625 -7.144531 19.0625 -5.78125 C 19.0625 -3.550781 18.226562 -1.960938 16.5625 -1.015625 C 14.90625 -0.078125 12.734375 0.390625 10.046875 0.390625 C 8.503906 0.390625 7.050781 0.175781 5.6875 -0.25 C 4.320312 -0.675781 3.207031 -1.335938 2.34375 -2.234375 C 1.488281 -3.140625 1.0625 -4.289062 1.0625 -5.6875 L 7.171875 -5.6875 L 7.171875 -5.546875 C 7.191406 -4.796875 7.503906 -4.269531 8.109375 -3.96875 C 8.710938 -3.675781 9.359375 -3.53125 10.046875 -3.53125 C 11.867188 -3.53125 12.78125 -3.960938 12.78125 -4.828125 C 12.78125 -5.265625 12.492188 -5.582031 11.921875 -5.78125 C 11.347656 -5.976562 10.410156 -6.1875 9.109375 -6.40625 C 7.546875 -6.664062 6.265625 -6.953125 5.265625 -7.265625 C 4.265625 -7.578125 3.390625 -8.097656 2.640625 -8.828125 C 1.890625 -9.566406 1.515625 -10.597656 1.515625 -11.921875 C 1.515625 -14.054688 2.320312 -15.578125 3.9375 -16.484375 C 5.5625 -17.390625 7.671875 -17.84375 10.265625 -17.84375 Z M 10.265625 -17.84375 "/></g></g><g style="fill:#ffffff;fill-opacity:1;"><g transform="translate(155.342666, 223.810059)"><path style="stroke:none" d="M 13.28125 -23.125 C 16.644531 -23.125 19.304688 -22.28125 21.265625 -20.59375 C 23.234375 -18.90625 24.21875 -16.5 24.21875 -13.375 L 17.25 -13.375 C 17.25 -14.695312 16.898438 -15.742188 16.203125 -16.515625 C 15.503906 -17.285156 14.519531 -17.671875 13.25 -17.671875 C 11.769531 -17.671875 10.679688 -17.207031 9.984375 -16.28125 C 9.296875 -15.351562 8.953125 -14.066406 8.953125 -12.421875 L 8.953125 -10.3125 C 8.953125 -8.675781 9.296875 -7.390625 9.984375 -6.453125 C 10.679688 -5.515625 11.742188 -5.046875 13.171875 -5.046875 C 14.585938 -5.046875 15.65625 -5.410156 16.375 -6.140625 C 17.101562 -6.867188 17.46875 -7.894531 17.46875 -9.21875 L 24.21875 -9.21875 C 24.21875 -6.113281 23.265625 -3.734375 21.359375 -2.078125 C 19.453125 -0.429688 16.757812 0.390625 13.28125 0.390625 C 9.40625 0.390625 6.46875 -0.597656 4.46875 -2.578125 C 2.476562 -4.554688 1.484375 -7.484375 1.484375 -11.359375 C 1.484375 -15.234375 2.476562 -18.160156 4.46875 -20.140625 C 6.46875 -22.128906 9.40625 -23.125 13.28125 -23.125 Z M 13.28125 -23.125 "/></g></g><g style="fill:#ffffff;fill-opacity:1;"><g transform="translate(181.034833, 223.810059)"><path style="stroke:none" d="M 11 -17.84375 C 14.0625 -17.84375 16.46875 -17.0625 18.21875 -15.5 C 19.96875 -13.945312 20.84375 -11.6875 20.84375 -8.71875 C 20.84375 -5.75 19.96875 -3.488281 18.21875 -1.9375 C 16.46875 -0.382812 14.0625 0.390625 11 0.390625 C 7.9375 0.390625 5.535156 -0.378906 3.796875 -1.921875 C 2.054688 -3.460938 1.1875 -5.726562 1.1875 -8.71875 C 1.1875 -11.71875 2.054688 -13.988281 3.796875 -15.53125 C 5.535156 -17.070312 7.9375 -17.84375 11 -17.84375 Z M 11 -13.375 C 8.84375 -13.375 7.765625 -12.128906 7.765625 -9.640625 L 7.765625 -7.765625 C 7.765625 -5.296875 8.84375 -4.0625 11 -4.0625 C 13.175781 -4.0625 14.265625 -5.296875 14.265625 -7.765625 L 14.265625 -9.640625 C 14.265625 -12.128906 13.175781 -13.375 11 -13.375 Z M 11 -13.375 "/></g></g><g style="fill:#ffffff;fill-opacity:1;"><g transform="translate(203.061412, 223.810059)"><path style="stroke:none" d="M 25.140625 -17.84375 C 27.117188 -17.84375 28.601562 -17.273438 29.59375 -16.140625 C 30.582031 -15.003906 31.078125 -13.390625 31.078125 -11.296875 L 31.078125 0 L 24.515625 0 L 24.515625 -10.5 C 24.515625 -11.25 24.332031 -11.847656 23.96875 -12.296875 C 23.601562 -12.753906 23.085938 -12.984375 22.421875 -12.984375 C 21.648438 -12.984375 21.019531 -12.71875 20.53125 -12.1875 C 20.050781 -11.65625 19.8125 -11.003906 19.8125 -10.234375 L 19.8125 0 L 13.25 0 L 13.25 -10.5 C 13.25 -11.25 13.066406 -11.847656 12.703125 -12.296875 C 12.335938 -12.753906 11.828125 -12.984375 11.171875 -12.984375 C 10.398438 -12.984375 9.769531 -12.71875 9.28125 -12.1875 C 8.800781 -11.65625 8.5625 -11.003906 8.5625 -10.234375 L 8.5625 0 L 1.984375 0 L 1.984375 -17.4375 L 7.359375 -17.4375 L 7.796875 -14.828125 C 8.453125 -15.753906 9.328125 -16.488281 10.421875 -17.03125 C 11.515625 -17.570312 12.664062 -17.84375 13.875 -17.84375 C 16.488281 -17.84375 18.25 -16.835938 19.15625 -14.828125 C 19.84375 -15.753906 20.71875 -16.488281 21.78125 -17.03125 C 22.851562 -17.570312 23.972656 -17.84375 25.140625 -17.84375 Z M 25.140625 -17.84375 "/></g></g><g style="fill:#ffffff;fill-opacity:1;"><g transform="translate(236.084766, 223.810059)"><path style="stroke:none" d="M 13.484375 -17.84375 C 15.835938 -17.84375 17.648438 -17.070312 18.921875 -15.53125 C 20.203125 -13.988281 20.84375 -11.707031 20.84375 -8.6875 C 20.84375 -5.6875 20.203125 -3.421875 18.921875 -1.890625 C 17.648438 -0.367188 15.835938 0.390625 13.484375 0.390625 C 11.453125 0.390625 9.820312 -0.265625 8.59375 -1.578125 L 8.59375 6.5 L 2.015625 6.5 L 2.015625 -17.4375 L 7.359375 -17.4375 L 7.921875 -14.96875 C 9.203125 -16.882812 11.054688 -17.84375 13.484375 -17.84375 Z M 11.421875 -12.984375 C 10.453125 -12.984375 9.722656 -12.640625 9.234375 -11.953125 C 8.753906 -11.273438 8.515625 -10.382812 8.515625 -9.28125 L 8.515625 -8.1875 C 8.515625 -7.09375 8.753906 -6.195312 9.234375 -5.5 C 9.722656 -4.800781 10.453125 -4.453125 11.421875 -4.453125 C 13.316406 -4.453125 14.265625 -5.585938 14.265625 -7.859375 L 14.265625 -9.609375 C 14.265625 -11.859375 13.316406 -12.984375 11.421875 -12.984375 Z M 11.421875 -12.984375 "/></g></g><g style="fill:#ffffff;fill-opacity:1;"><g transform="translate(258.111345, 223.810059)"><path style="stroke:none" d="M 14.640625 0 L 14.203125 -2.640625 C 13.515625 -1.691406 12.613281 -0.945312 11.5 -0.40625 C 10.394531 0.125 9.226562 0.390625 8 0.390625 C 5.96875 0.390625 4.445312 -0.164062 3.4375 -1.28125 C 2.425781 -2.40625 1.921875 -4.023438 1.921875 -6.140625 L 1.921875 -17.4375 L 8.484375 -17.4375 L 8.484375 -6.9375 C 8.484375 -6.1875 8.675781 -5.582031 9.0625 -5.125 C 9.445312 -4.675781 9.992188 -4.453125 10.703125 -4.453125 C 11.515625 -4.453125 12.171875 -4.71875 12.671875 -5.25 C 13.179688 -5.78125 13.4375 -6.429688 13.4375 -7.203125 L 13.4375 -17.4375 L 20.015625 -17.4375 L 20.015625 0 Z M 14.640625 0 "/></g></g><g style="fill:#ffffff;fill-opacity:1;"><g transform="translate(280.137924, 223.810059)"><path style="stroke:none" d="M 13.609375 -17.4375 L 13.609375 -12.984375 L 9.90625 -12.984375 L 9.90625 -6.34375 C 9.90625 -5.550781 10.035156 -4.972656 10.296875 -4.609375 C 10.566406 -4.242188 11.054688 -4.0625 11.765625 -4.0625 L 13.609375 -4.0625 L 13.609375 -0.203125 C 13.078125 -0.0234375 12.394531 0.113281 11.5625 0.21875 C 10.726562 0.332031 10 0.390625 9.375 0.390625 C 7.4375 0.390625 5.945312 0.0390625 4.90625 -0.65625 C 3.863281 -1.363281 3.34375 -2.566406 3.34375 -4.265625 L 3.34375 -12.984375 L 0.890625 -12.984375 L 0.890625 -17.4375 L 3.59375 -17.4375 L 5.015625 -22.71875 L 9.90625 -22.71875 L 9.90625 -17.4375 Z M 13.609375 -17.4375 "/></g></g><g style="fill:#ffffff;fill-opacity:1;"><g transform="translate(294.800299, 223.810059)"><path style="stroke:none" d="M 11 -17.84375 C 14.1875 -17.84375 16.625 -17.09375 18.3125 -15.59375 C 20 -14.09375 20.84375 -11.800781 20.84375 -8.71875 L 20.84375 -7.59375 L 7.765625 -7.59375 C 7.765625 -6.34375 8.046875 -5.394531 8.609375 -4.75 C 9.171875 -4.113281 10.054688 -3.796875 11.265625 -3.796875 C 12.367188 -3.796875 13.175781 -4.023438 13.6875 -4.484375 C 14.207031 -4.953125 14.46875 -5.570312 14.46875 -6.34375 L 20.84375 -6.34375 C 20.84375 -4.226562 20.035156 -2.578125 18.421875 -1.390625 C 16.816406 -0.203125 14.472656 0.390625 11.390625 0.390625 C 8.160156 0.390625 5.648438 -0.359375 3.859375 -1.859375 C 2.078125 -3.367188 1.1875 -5.65625 1.1875 -8.71875 C 1.1875 -11.71875 2.054688 -13.988281 3.796875 -15.53125 C 5.535156 -17.070312 7.9375 -17.84375 11 -17.84375 Z M 11.265625 -13.640625 C 9.191406 -13.640625 8.035156 -12.660156 7.796875 -10.703125 L 14.203125 -10.703125 C 14.203125 -11.609375 13.941406 -12.320312 13.421875 -12.84375 C 12.910156 -13.375 12.191406 -13.640625 11.265625 -13.640625 Z M 11.265625 -13.640625 "/></g></g><g style="fill:#ffffff;fill-opacity:1;"><g transform="translate(316.826878, 223.810059)"><path style="stroke:none" d="M 12.578125 -17.875 C 13.085938 -17.875 13.539062 -17.8125 13.9375 -17.6875 C 14.332031 -17.5625 14.53125 -17.488281 14.53125 -17.46875 L 14.53125 -11.953125 L 12.421875 -11.953125 C 11.054688 -11.953125 10.070312 -11.597656 9.46875 -10.890625 C 8.863281 -10.191406 8.5625 -9.148438 8.5625 -7.765625 L 8.5625 0 L 1.984375 0 L 1.984375 -17.4375 L 7.359375 -17.4375 L 7.796875 -14.796875 C 8.191406 -15.804688 8.816406 -16.570312 9.671875 -17.09375 C 10.535156 -17.613281 11.503906 -17.875 12.578125 -17.875 Z M 12.578125 -17.875 "/></g></g><g style="fill:#ffffff;fill-opacity:1;"><g transform="translate(155.342666, 259.810056)"><path style="stroke:none" d="M 13.28125 -23.125 C 16.644531 -23.125 19.304688 -22.28125 21.265625 -20.59375 C 23.234375 -18.90625 24.21875 -16.5 24.21875 -13.375 L 17.25 -13.375 C 17.25 -14.695312 16.898438 -15.742188 16.203125 -16.515625 C 15.503906 -17.285156 14.519531 -17.671875 13.25 -17.671875 C 11.769531 -17.671875 10.679688 -17.207031 9.984375 -16.28125 C 9.296875 -15.351562 8.953125 -14.066406 8.953125 -12.421875 L 8.953125 -10.3125 C 8.953125 -8.675781 9.296875 -7.390625 9.984375 -6.453125 C 10.679688 -5.515625 11.742188 -5.046875 13.171875 -5.046875 C 14.585938 -5.046875 15.65625 -5.410156 16.375 -6.140625 C 17.101562 -6.867188 17.46875 -7.894531 17.46875 -9.21875 L 24.21875 -9.21875 C 24.21875 -6.113281 23.265625 -3.734375 21.359375 -2.078125 C 19.453125 -0.429688 16.757812 0.390625 13.28125 0.390625 C 9.40625 0.390625 6.46875 -0.597656 4.46875 -2.578125 C 2.476562 -4.554688 1.484375 -7.484375 1.484375 -11.359375 C 1.484375 -15.234375 2.476562 -18.160156 4.46875 -20.140625 C 6.46875 -22.128906 9.40625 -23.125 13.28125 -23.125 Z M 13.28125 -23.125 "/></g></g><g style="fill:#ffffff;fill-opacity:1;"><g transform="translate(181.034833, 259.810056)"><path style="stroke:none" d="M 2.21875 0 L 2.21875 -23.953125 L 8.78125 -23.953125 L 8.78125 0 Z M 2.21875 0 "/></g></g><g style="fill:#ffffff;fill-opacity:1;"><g transform="translate(192.031609, 259.810056)"><path style="stroke:none" d="M 14.640625 0 L 14.203125 -2.640625 C 13.515625 -1.691406 12.613281 -0.945312 11.5 -0.40625 C 10.394531 0.125 9.226562 0.390625 8 0.390625 C 5.96875 0.390625 4.445312 -0.164062 3.4375 -1.28125 C 2.425781 -2.40625 1.921875 -4.023438 1.921875 -6.140625 L 1.921875 -17.4375 L 8.484375 -17.4375 L 8.484375 -6.9375 C 8.484375 -6.1875 8.675781 -5.582031 9.0625 -5.125 C 9.445312 -4.675781 9.992188 -4.453125 10.703125 -4.453125 C 11.515625 -4.453125 12.171875 -4.71875 12.671875 -5.25 C 13.179688 -5.78125 13.4375 -6.429688 13.4375 -7.203125 L 13.4375 -17.4375 L 20.015625 -17.4375 L 20.015625 0 Z M 14.640625 0 "/></g></g><g style="fill:#ffffff;fill-opacity:1;"><g transform="translate(214.058188, 259.810056)"><path style="stroke:none" d="M 8.59375 -15.828125 C 9.84375 -17.171875 11.472656 -17.84375 13.484375 -17.84375 C 15.835938 -17.84375 17.648438 -17.078125 18.921875 -15.546875 C 20.203125 -14.015625 20.84375 -11.75 20.84375 -8.75 C 20.84375 -5.738281 20.203125 -3.460938 18.921875 -1.921875 C 17.648438 -0.378906 15.835938 0.390625 13.484375 0.390625 C 11.054688 0.390625 9.203125 -0.566406 7.921875 -2.484375 L 7.359375 0 L 2.015625 0 L 2.015625 -23.953125 L 8.59375 -23.953125 Z M 11.421875 -12.984375 C 10.453125 -12.984375 9.722656 -12.632812 9.234375 -11.9375 C 8.753906 -11.25 8.515625 -10.351562 8.515625 -9.25 L 8.515625 -8.15625 C 8.515625 -7.050781 8.753906 -6.15625 9.234375 -5.46875 C 9.722656 -4.789062 10.453125 -4.453125 11.421875 -4.453125 C 13.316406 -4.453125 14.265625 -5.578125 14.265625 -7.828125 L 14.265625 -9.578125 C 14.265625 -11.847656 13.316406 -12.984375 11.421875 -12.984375 Z M 11.421875 -12.984375 "/></g></g></g></svg>